<svg width="240" height="130" viewBox="0 0 240 130" fill="currentColor" xmlns="http://www.w3.org/2000/svg">
<path d="M132.065 23.1663C128.199 22.5623 124.092 21.8677 119.985 21.8677C115.877 21.8677 111.77 22.5623 107.904 23.1663L91.2637 25.7636L119.955 58.3201L148.645 25.7636L132.065 23.1663Z" />
<path d="M239.43 0.726905C239.883 1.27052 239.973 2.11615 239.339 2.78056L215.51 26.609C212.43 29.6895 208.413 31.6828 204.094 32.2868L183.075 35.2163C179.783 35.6693 176.702 36.9981 174.105 39.0518L164.048 46.9946L154.414 41.6793V32.5888L170.843 24.5856L202.826 22.0487L238.735 0.666504L239.43 0.726905Z" />
<path d="M0.540144 0.727249C0.0871313 1.27086 -0.00347036 2.11649 0.630748 2.78091L24.4592 26.6094C27.5397 29.6899 31.5564 31.6831 35.8752 32.2872L56.895 35.2166C60.1869 35.6697 63.2673 36.9985 65.8646 39.0522L75.9215 46.995L85.5556 41.6796V32.5892L69.1263 24.5859L37.1436 22.0491L1.26497 0.606445L0.540144 0.727249Z" />
<path d="M237.526 0.364627L214.332 13.1094C208.805 16.1295 202.644 17.7301 196.363 17.7301H175.645C169.514 17.7301 163.413 18.8778 157.705 21.1126L122.552 34.854C120.921 35.4882 119.079 35.4882 117.448 34.854L82.3241 21.0824C76.6161 18.8476 70.5155 17.6999 64.3848 17.6999H43.667C37.3852 17.6999 31.194 16.1295 25.6974 13.0792L2.47297 0.334424C1.74815 -0.058187 0.993125 0.183421 0.570312 0.696836L28.8383 21.5052C31.4356 23.4079 34.4859 24.5253 37.6872 24.7669L62.4217 26.5488C66.076 26.8206 69.6095 27.938 72.7202 29.8407L77.7033 32.891C80.814 34.7936 80.4818 39.4143 77.1295 40.864L75.3779 41.619L71.3309 43.3405L112.012 128.356C117.236 129.655 122.672 129.655 127.897 128.356L168.608 43.3707L164.561 41.6492L162.809 40.8942C159.457 39.4446 159.125 34.8238 162.236 32.9212L167.219 29.8709C170.36 27.9682 173.893 26.8508 177.517 26.579L202.252 24.7971C205.453 24.5555 208.534 23.4381 211.101 21.5354L239.429 0.727037C239.006 0.213622 238.281 -0.0279843 237.526 0.364627Z" />
<path d="M175.192 55.6926C177.578 51.6758 175.887 46.4813 171.598 44.639L168.608 43.3706L143.934 62.8502C142.092 64.2998 140.824 66.3233 140.31 68.5883L127.928 128.386L130.616 127.722C131.944 127.389 133.092 126.544 133.817 125.366L175.192 55.6926Z" />
<path d="M64.777 55.6926C62.3911 51.6758 64.0823 46.4813 68.3709 44.639L71.3608 43.3706L96.0349 62.8502C97.8771 64.2998 99.1456 66.3233 99.659 68.5883L112.041 128.386L109.353 127.722C108.025 127.389 106.877 126.544 106.152 125.366L64.777 55.6926Z" />
<path d="M168.639 43.5518L171.538 44.79C173.531 45.6357 175.072 47.3269 175.736 49.3806C176.401 51.4342 176.159 53.6993 175.042 55.5718L171.961 60.7663L172.354 60.7965L175.344 55.753C176.521 53.7899 176.763 51.4342 176.068 49.2598C175.374 47.0853 173.743 45.3337 171.659 44.4578L168.941 43.3102L174.196 39.1727L173.984 38.9009L168.579 43.1592L162.901 40.7431C161.391 40.1089 160.394 38.7197 160.304 37.0888C160.183 35.458 160.968 33.9479 162.357 33.1023L162.176 32.8003C160.666 33.7365 159.82 35.3372 159.941 37.119C160.062 38.9009 161.119 40.3807 162.78 41.0753L168.277 43.431" />
<path d="M127.777 128.235C125.24 128.839 122.613 129.171 119.985 129.171V129.534C122.673 129.534 125.361 129.202 127.958 128.567L130.646 127.903C132.005 127.571 133.213 126.665 133.938 125.457L133.636 125.275C132.972 126.423 131.824 127.238 130.556 127.571L128.14 128.175L127.777 128.235Z" />
<path d="M25.5771 13.2604C31.1039 16.2805 37.3555 17.8812 43.6373 17.8812H64.3551V17.5188H43.6373C37.3857 17.5188 31.1945 15.9181 25.7282 12.9282L25.5771 13.2604Z" />
<path d="M28.7178 21.6863C31.3452 23.6191 34.4257 24.7668 37.6572 24.9782L62.3917 26.76C65.9856 27.0318 69.5494 28.1493 72.6298 30.0217L72.811 29.7197C69.6701 27.8171 66.0762 26.6694 62.4219 26.3976L37.6874 24.6158C34.5163 24.3742 31.4963 23.2567 28.9292 21.3843L28.7178 21.6863Z" />
<path d="M71.3918 43.1591L65.9859 38.9008C63.3584 36.8471 60.2175 35.4881 56.9256 35.0351L35.9058 32.1056C31.6475 31.5016 27.6308 29.5083 24.5805 26.458L24.3389 26.6996C27.4194 29.7801 31.5267 31.8338 35.8454 32.4378L56.8652 35.3673C60.0967 35.8203 63.1772 37.1189 65.7443 39.1726L70.9992 43.3101L68.2811 44.4577C66.1973 45.3638 64.5664 47.1154 63.8718 49.2597L64.204 49.3805C64.8684 47.3268 66.4087 45.6356 68.4019 44.7899L71.3012 43.5517L95.8847 62.9709C97.6666 64.3903 98.935 66.3836 99.4484 68.6184L109.807 118.601L110.17 118.54L99.8108 68.558C99.2974 66.2628 97.9686 64.1789 96.1263 62.6991L76.0428 46.8436L71.6938 43.4309" />
<path d="M100.717 116.517L106.002 125.427C106.727 126.635 107.935 127.541 109.294 127.873C109.958 128.024 111.982 128.537 111.982 128.537C114.579 129.172 117.267 129.504 119.955 129.504L120.106 129.323L119.955 129.141C117.327 129.141 114.7 128.839 112.163 128.205L110.17 118.511L109.988 118.45L109.837 118.571L111.801 128.115C111.801 128.115 109.988 127.662 109.384 127.511C108.116 127.209 106.968 126.363 106.304 125.215L100.989 116.276L100.777 116.246L100.717 116.517Z" />
<path d="M64.3551 17.881C70.4859 17.881 76.5261 19.0286 82.234 21.2635L117.358 35.0351L117.539 34.9143L117.478 34.7028L94.0426 25.4916L107.935 23.3171L108.781 23.1963C112.405 22.6225 116.274 22.0463 120.049 22.0463L120.076 21.8373L120.109 21.7141C116.304 21.7141 112.375 22.2601 108.72 22.8339L93.3781 25.25L82.3548 20.9312C76.5865 18.6662 70.5463 17.5186 64.3551 17.5186L64.2041 17.6696L64.3551 17.881Z" />
<path d="M132.669 30.6865L122.461 34.673C120.861 35.3073 119.079 35.3073 117.478 34.673L117.357 35.0052C119.049 35.6697 120.921 35.6697 122.582 35.0052L132.76 31.0187L132.669 30.6865Z" />
<path d="M132.791 31.0184L146.653 25.5823L157.737 21.2635C163.444 19.0287 169.485 17.881 175.615 17.881L175.797 17.6998L175.615 17.5488C169.424 17.5488 163.354 18.6965 157.616 20.9615L146.592 25.2803L132.096 23.0152L131.25 22.8944C127.596 22.3206 123.821 21.7165 120.016 21.7165V22.079C123.821 22.079 127.566 22.683 131.19 23.2568L145.958 25.5823L132.67 30.6862L132.791 31.0184Z"/>
<path d="M171.961 60.7966L133.636 125.275L133.726 125.487L133.938 125.457L172.353 60.8268L172.232 60.6758L171.961 60.7966Z" />
<path d="M128.169 128.144L140.491 68.6185C141.004 66.3837 142.273 64.3904 144.055 62.971L168.638 43.5518L168.578 43.3706L168.276 43.4008L143.843 62.6992C142.001 64.179 140.672 66.2327 140.159 68.5581L127.807 128.235L127.988 128.326L128.169 128.144Z" />
<path d="M63.9021 49.29C63.2075 51.4644 63.4491 53.8201 64.627 55.7832L100.747 116.547L101.049 116.336L64.929 55.602C63.8115 53.7295 63.5699 51.4644 64.2344 49.4108L64.1136 49.2598L63.9021 49.29Z" />
<path d="M175.615 17.8812H196.333C202.645 17.8812 208.866 16.2805 214.393 13.2604L237.617 0.515659C238.252 0.183449 238.795 0.364654 239.158 0.696863L211.041 21.3845C208.474 23.2569 205.453 24.3743 202.282 24.616L177.548 26.3978C173.894 26.6696 170.3 27.8172 167.159 29.7199L162.176 32.7702L162.115 33.0118L162.387 33.0722L167.37 30.0219C170.451 28.1495 173.984 27.0018 177.608 26.7602L202.343 24.9784C205.574 24.7368 208.685 23.5891 211.282 21.6865L239.429 0.998872C239.731 1.45189 239.792 2.14651 239.248 2.65992L215.42 26.4884C212.369 29.5387 208.353 31.532 204.094 32.136L183.075 35.0655C179.753 35.5185 176.642 36.8473 174.014 38.9312V39.1728L174.256 39.2332C176.823 37.2097 179.904 35.8809 183.135 35.4279L204.155 32.4984C208.504 31.8944 212.581 29.8709 215.661 26.7602L239.49 2.93173C240.245 2.17671 240.064 1.21028 239.58 0.63646C239.127 0.0928446 238.312 -0.209163 237.466 0.24385L214.242 12.9886C208.776 15.9785 202.584 17.5792 196.333 17.5792H175.615V17.7604V17.8812Z" />
<path d="M71.7238 43.4007L77.2204 41.0451C78.8512 40.3504 79.9082 38.8706 80.0592 37.0887C80.18 35.3069 79.3646 33.7062 77.8244 32.77L72.811 29.7197L72.6298 29.8103V30.0217L77.613 33.072C79.0324 33.9176 79.7874 35.4277 79.6666 37.0585C79.5458 38.6894 78.5794 40.0786 77.0694 40.7128L71.3916 43.1289V43.3705H71.7238V43.4007Z" />
<path d="M24.5804 26.4582L0.751863 2.62973C0.208248 2.08611 0.26865 1.42169 0.570659 0.96868L28.7179 21.6563L28.9293 21.6261V21.3845L0.812266 0.696871C1.14448 0.364662 1.71829 0.183457 2.35251 0.515667L25.577 13.2604L25.7884 13.1698L25.7582 12.9584L2.53372 0.213658C1.68809 -0.239355 0.872667 0.0928531 0.419654 0.606268C-0.0635597 1.18008 -0.244764 2.14651 0.510258 2.90153L24.3387 26.73L24.5804 26.7602V26.4582Z" />
</svg>
